<?xml version="1.0" encoding="UTF-8" standalone="no"?>
<!DOCTYPE svg PUBLIC "-//W3C//DTD SVG 1.1//EN" "http://www.w3.org/Graphics/SVG/1.1/DTD/svg11.dtd">
<svg width="100%" height="100%" viewBox="0 0 234 157" version="1.1" xmlns="http://www.w3.org/2000/svg" xmlns:xlink="http://www.w3.org/1999/xlink" xml:space="preserve" xmlns:serif="http://www.serif.com/" style="fill-rule:evenodd;clip-rule:evenodd;stroke-linejoin:round;stroke-miterlimit:2;">
    <g transform="matrix(1,0,0,1,-133,-54)">
        <path id="bangs7" d="M249.885,54.409C233.345,54.409 150.004,89.125 140.143,121.671C130.282,154.218 133.133,176.611 134.773,188.003C136.413,199.395 136.342,210.135 143.936,210.135C151.53,210.135 140.384,149.461 150.895,134.69C161.406,119.919 178.017,89.125 204.053,80.446C230.09,71.767 236.274,85.871 250.54,85.871C264.806,85.871 281.079,69.598 296.267,81.531C311.456,93.465 336.408,110.823 345.087,127.096C367.869,185.679 354.014,207.857 356.834,208.229C359.655,208.601 362.361,205.013 364.46,193.381C366.559,181.75 365.699,180.254 366.784,163.981C367.869,147.708 362.445,124.926 354.851,111.908C347.256,98.889 266.424,54.409 249.885,54.409Z" style="fill:#1c7244;"/>
    </g>
</svg>
