<?xml version="1.0" encoding="UTF-8" standalone="no"?>
<!DOCTYPE svg PUBLIC "-//W3C//DTD SVG 1.1//EN" "http://www.w3.org/Graphics/SVG/1.1/DTD/svg11.dtd">
<svg width="100%" height="100%" viewBox="0 0 267 207" version="1.1" xmlns="http://www.w3.org/2000/svg" xmlns:xlink="http://www.w3.org/1999/xlink" xml:space="preserve" xmlns:serif="http://www.serif.com/" style="fill-rule:evenodd;clip-rule:evenodd;stroke-linejoin:round;stroke-miterlimit:2;">
    <g transform="matrix(1,0,0,1,-116,-47)">
        <path id="bangs1" d="M196.244,71.337C201.789,62.973 240.603,36.357 284.963,51.883C329.323,67.408 382.554,101.787 381.445,143.929C380.336,186.071 359.266,216.013 378.118,243.738C396.971,271.463 349.285,237.084 347.067,198.27C344.849,159.455 359.266,117.313 308.252,95.133C257.238,72.953 229.513,86.261 210.661,80.716C204.007,90.697 204.007,97.351 179.609,113.986C155.211,130.621 133.031,180.526 145.23,220.449C148.557,230.43 143.928,244.063 140.143,250C136.358,255.937 144.121,221.305 131.922,204.242C119.723,187.18 107.524,146.147 126.377,123.967C145.23,101.787 148.557,85.152 160.756,77.389C172.955,69.626 189.59,59.739 196.244,71.337Z" style="fill:#f9ecc6;"/>
    </g>
</svg>
