<?xml version="1.0" encoding="UTF-8" standalone="no"?>
<!DOCTYPE svg PUBLIC "-//W3C//DTD SVG 1.1//EN" "http://www.w3.org/Graphics/SVG/1.1/DTD/svg11.dtd">
<svg width="100%" height="100%" viewBox="0 0 274 165" version="1.1" xmlns="http://www.w3.org/2000/svg" xmlns:xlink="http://www.w3.org/1999/xlink" xml:space="preserve" xmlns:serif="http://www.serif.com/" style="fill-rule:evenodd;clip-rule:evenodd;stroke-linejoin:round;stroke-miterlimit:2;">
    <g transform="matrix(1,0,0,1,-114,-40)">
        <path id="bangs2" d="M140.143,204.242C123.05,192.725 109.742,171.654 115.287,142.82C134.14,166.109 137.274,145.038 146.797,140.602C149.666,132.839 125.075,101.787 140.143,87.37C155.211,72.953 138.576,98.46 150.775,104.005C162.974,109.55 182.936,92.915 182.936,92.915C182.936,92.915 171.291,57.982 185.708,54.655C186.817,75.726 213.988,76.28 213.988,76.28C213.988,76.28 202.898,51.883 213.988,47.447C225.077,43.011 228.404,37.223 242.821,42.335C257.238,47.447 250.54,71.337 250.54,71.337C250.54,71.337 299.434,76.743 301.625,67.085C303.816,57.428 280.527,62.973 274.982,58.537C287.181,51.883 328.214,61.957 312.688,71.337C297.162,80.716 364.811,125.076 354.83,97.351C325.996,49.665 384.846,123.967 359.857,121.749C334.868,119.531 337.086,112.877 337.086,112.877C337.086,112.877 367.029,167.218 375.9,149.474C384.772,131.73 362.593,106.223 377.009,123.967C394.753,135.057 386.99,176.09 375.9,177.199C364.811,178.308 343.74,117.313 327.105,102.896C310.47,88.479 286.176,71.46 260.617,72.207C235.058,72.953 189.59,78.498 167.41,110.659C145.23,142.82 140.601,166.109 140.143,180.526C139.685,194.943 146.146,201.343 140.143,204.242Z" style="fill:#f292c0;"/>
    </g>
</svg>
