<?xml version="1.0" encoding="UTF-8" standalone="no"?>
<!DOCTYPE svg PUBLIC "-//W3C//DTD SVG 1.1//EN" "http://www.w3.org/Graphics/SVG/1.1/DTD/svg11.dtd">
<svg width="100%" height="100%" viewBox="0 0 273 180" version="1.1" xmlns="http://www.w3.org/2000/svg" xmlns:xlink="http://www.w3.org/1999/xlink" xml:space="preserve" xmlns:serif="http://www.serif.com/" style="fill-rule:evenodd;clip-rule:evenodd;stroke-linejoin:round;stroke-miterlimit:2;">
    <g transform="matrix(1,0,0,1,-113,-47)">
        <path id="bangs3" d="M251.623,71.39C250.306,71.915 239.474,76.168 230.099,78.043C220.099,80.043 215.14,95.656 195.14,107.656C175.14,119.656 164.099,122.043 152.099,142.043C140.099,162.043 155.675,203.243 135.98,225.776C89.222,133.814 127.18,120.18 151.621,85.473C179.245,46.247 240.499,42.946 254.866,50.704C270.268,45.019 313.026,47.935 343.374,79.61C385.374,128.316 404.301,148.768 358.816,226.1C337.881,198.779 374.802,184.942 333.658,142.043C321.658,122.043 325.658,98.043 305.658,86.043C285.658,74.043 281.658,80.043 271.658,78.043C261.658,76.043 251.756,71.337 251.756,71.337L251.623,71.39Z" style="fill:#563c24;"/>
    </g>
</svg>
