<?xml version="1.0" encoding="UTF-8" standalone="no"?>
<!DOCTYPE svg PUBLIC "-//W3C//DTD SVG 1.1//EN" "http://www.w3.org/Graphics/SVG/1.1/DTD/svg11.dtd">
<svg width="100%" height="100%" viewBox="0 0 276 218" version="1.1" xmlns="http://www.w3.org/2000/svg" xmlns:xlink="http://www.w3.org/1999/xlink" xml:space="preserve" xmlns:serif="http://www.serif.com/" style="fill-rule:evenodd;clip-rule:evenodd;stroke-linejoin:round;stroke-miterlimit:2;">
    <g transform="matrix(1,0,0,1,-111,-54)">
        <g id="bangs4" transform="matrix(1,0,0,1.2512,0,-13.7911)">
            <path d="M261.621,73.128C259.558,74.729 255.87,76.931 250.54,77.674C241.82,78.891 242.906,74.025 227.092,76.458C211.278,78.891 205.195,75.241 194.247,98.354C183.299,121.467 169.917,114.169 161.402,128.766C152.887,143.364 140.722,147.013 140.143,165.261C139.564,183.508 156.536,213.92 140.143,225.776C134.967,229.52 141.938,211.487 131.301,202.971C120.664,194.456 121.258,179.858 112.743,161.611C104.227,143.364 130.99,138.498 140.143,104.437C149.296,70.375 168.701,86.189 184.515,71.337C200.329,56.484 196.68,70.375 228.308,58.21C248.728,50.357 257.485,58.115 261.127,64.6C265.396,60.59 272.76,57.122 284.266,61.86C304.946,70.375 306.163,77.674 314.678,81.324C323.194,84.973 331.709,80.107 345.09,94.705C358.471,109.303 346.645,115.385 359.857,125.117C373.069,134.849 389.508,151.879 386.154,161.611C382.801,171.343 350.294,200.23 367.156,225.776C360.904,234.292 346.307,213.92 353.606,182.291C360.904,150.663 334.142,109.303 320.761,100.787C307.379,92.272 304.946,105.653 291.565,95.921C278.184,86.189 286.699,79.597 276.967,77.419C271.522,76.201 265.697,74.442 261.621,73.128Z" style="fill:#333;"/>
        </g>
    </g>
</svg>
