<?xml version="1.0" encoding="UTF-8" standalone="no"?>
<!DOCTYPE svg PUBLIC "-//W3C//DTD SVG 1.1//EN" "http://www.w3.org/Graphics/SVG/1.1/DTD/svg11.dtd">
<svg width="100%" height="100%" viewBox="0 0 243 180" version="1.1" xmlns="http://www.w3.org/2000/svg" xmlns:xlink="http://www.w3.org/1999/xlink" xml:space="preserve" xmlns:serif="http://www.serif.com/" style="fill-rule:evenodd;clip-rule:evenodd;stroke-linejoin:round;stroke-miterlimit:2;">
    <g transform="matrix(1,0,0,1,-130,-55)">
        <path id="bangs5" d="M250,56.227C220.798,58.045 139.779,62.347 131.301,152.616C127.413,186.275 139.104,196.429 140.143,225.776C141.182,255.124 147.302,201.575 147.302,167.915C165.662,151.086 183.951,129.666 250.54,129.666C255.93,112.836 260.52,89.887 260.52,83.767C260.52,77.647 281.94,97.536 277.35,128.136C291.12,131.196 298.77,132.726 298.77,132.726C298.77,132.726 301.83,111.306 298.77,99.066C312.539,114.366 315.599,137.316 315.599,137.316L350.789,155.675C350.789,155.675 349.036,213.258 359.857,225.776C370.678,238.294 360.6,203.105 368.699,181.685C376.798,160.265 372.208,118.956 347.729,99.066C323.249,79.177 299.149,53.167 250,56.227Z" style="fill:#f8564d;"/>
    </g>
</svg>
