<?xml version="1.0" encoding="UTF-8" standalone="no"?>
<!DOCTYPE svg PUBLIC "-//W3C//DTD SVG 1.1//EN" "http://www.w3.org/Graphics/SVG/1.1/DTD/svg11.dtd">
<svg width="100%" height="100%" viewBox="0 0 188 13" version="1.1" xmlns="http://www.w3.org/2000/svg" xmlns:xlink="http://www.w3.org/1999/xlink" xml:space="preserve" xmlns:serif="http://www.serif.com/" style="fill-rule:evenodd;clip-rule:evenodd;stroke-linejoin:round;stroke-miterlimit:2;">
    <g transform="matrix(1,0,0,1,-155,-156)">
        <g id="brows3" transform="matrix(1,0,0,1,-4.58728,4.58728)">
            <path d="M160.079,162.123C160.079,162.123 178.07,160.868 189.189,160.868C200.308,160.868 222.546,167.354 224.399,162.721C226.252,158.088 211.427,150.675 193.822,152.528C176.217,154.382 160.079,162.123 160.079,162.123ZM346.988,162.123C346.988,162.123 331.104,160.868 319.985,160.868C308.866,160.868 286.629,167.354 284.775,162.721C282.922,158.088 297.748,150.675 315.353,152.528C332.958,154.382 346.988,162.123 346.988,162.123Z" style="fill:#a37143;"/>
        </g>
    </g>
</svg>
