<?xml version="1.0" encoding="UTF-8" standalone="no"?>
<!DOCTYPE svg PUBLIC "-//W3C//DTD SVG 1.1//EN" "http://www.w3.org/Graphics/SVG/1.1/DTD/svg11.dtd">
<svg width="100%" height="100%" viewBox="0 0 201 22" version="1.1" xmlns="http://www.w3.org/2000/svg" xmlns:xlink="http://www.w3.org/1999/xlink" xml:space="preserve" xmlns:serif="http://www.serif.com/" style="fill-rule:evenodd;clip-rule:evenodd;stroke-linejoin:round;stroke-miterlimit:2;">
    <g transform="matrix(1,0,0,1,-149,-164)">
        <g id="brows10" transform="matrix(1,0,0,0.421714,0,100.48)">
            <path d="M149.171,202.382C149.171,202.382 185.072,165.965 196.191,165.965C207.31,165.965 221.954,174.594 225.08,166.863C232.201,149.25 191.036,150.636 173.431,153.889C155.826,157.141 149.171,202.382 149.171,202.382ZM349.168,202.382C349.168,202.382 312.213,163.466 301.094,163.466C289.975,163.466 276.385,174.594 273.259,166.863C266.138,149.25 307.302,150.636 324.908,153.889C342.513,157.141 349.168,202.382 349.168,202.382Z" style="fill:#a37143;"/>
        </g>
    </g>
</svg>
