<?xml version="1.0" encoding="UTF-8" standalone="no"?>
<!DOCTYPE svg PUBLIC "-//W3C//DTD SVG 1.1//EN" "http://www.w3.org/Graphics/SVG/1.1/DTD/svg11.dtd">
<svg width="100%" height="100%" viewBox="0 0 188 23" version="1.1" xmlns="http://www.w3.org/2000/svg" xmlns:xlink="http://www.w3.org/1999/xlink" xml:space="preserve" xmlns:serif="http://www.serif.com/" style="fill-rule:evenodd;clip-rule:evenodd;stroke-linejoin:round;stroke-miterlimit:2;">
    <g transform="matrix(1,0,0,1,-156,-157)">
        <g id="brows4" transform="matrix(1,0,0,1,-4.58728,4.58728)">
            <path d="M161.133,174.766C161.133,174.766 178.07,160.868 189.189,160.868C200.308,160.868 231.779,173.576 233.881,164.828C235.984,156.08 202.998,152.782 185.393,154.636C167.788,156.489 161.133,174.766 161.133,174.766ZM348.041,174.766C348.041,174.766 331.104,160.868 319.985,160.868C308.866,160.868 274.566,171.469 272.132,163.774C269.698,156.08 308.283,151.729 325.888,153.582C343.493,155.435 348.041,174.766 348.041,174.766Z" style="fill:#a37143;"/>
        </g>
    </g>
</svg>
