<?xml version="1.0" encoding="UTF-8" standalone="no"?>
<!DOCTYPE svg PUBLIC "-//W3C//DTD SVG 1.1//EN" "http://www.w3.org/Graphics/SVG/1.1/DTD/svg11.dtd">
<svg width="100%" height="100%" viewBox="0 0 188 24" version="1.1" xmlns="http://www.w3.org/2000/svg" xmlns:xlink="http://www.w3.org/1999/xlink" xml:space="preserve" xmlns:serif="http://www.serif.com/" style="fill-rule:evenodd;clip-rule:evenodd;stroke-linejoin:round;stroke-miterlimit:2;">
    <g transform="matrix(1,0,0,1,-159,-156)">
        <g id="brows5" transform="matrix(1,0,0,1.75498,-4.58728,-110.349)">
            <path d="M164.294,160.959C164.294,160.959 178.07,163.269 189.189,163.269C200.308,163.269 222.546,167.354 224.399,162.721C226.252,158.088 211.427,150.675 193.822,152.528C176.217,154.382 164.294,160.959 164.294,160.959ZM351.202,160.959C351.202,160.959 331.104,163.269 319.985,163.269C308.866,163.269 286.629,167.354 284.775,162.721C282.922,158.088 297.748,150.675 315.353,152.528C332.958,154.382 351.202,160.959 351.202,160.959Z" style="fill:#a37143;"/>
        </g>
    </g>
</svg>
