<?xml version="1.0" encoding="UTF-8" standalone="no"?>
<!DOCTYPE svg PUBLIC "-//W3C//DTD SVG 1.1//EN" "http://www.w3.org/Graphics/SVG/1.1/DTD/svg11.dtd">
<svg width="100%" height="100%" viewBox="0 0 209 30" version="1.1" xmlns="http://www.w3.org/2000/svg" xmlns:xlink="http://www.w3.org/1999/xlink" xml:space="preserve" xmlns:serif="http://www.serif.com/" style="fill-rule:evenodd;clip-rule:evenodd;stroke-linejoin:round;stroke-miterlimit:2;">
    <g transform="matrix(1,0,0,1,-144,-152)">
        <g id="brows7" transform="matrix(1,0,0,1.75498,-4.58728,-110.349)">
            <path d="M149.544,165.761C149.544,165.761 178.07,159.067 189.189,159.067C200.308,159.067 240.238,167.165 243.364,162.76C250.485,152.724 195.623,148.711 178.018,150.564C160.413,152.418 149.544,165.761 149.544,165.761ZM357.524,166.362C357.524,166.362 331.104,159.067 319.985,159.067C308.866,159.067 266.812,167.365 264.757,162.76C259.743,151.523 312.498,148.711 330.103,150.564C347.708,152.418 357.524,166.362 357.524,166.362Z" style="fill:#a37143;"/>
        </g>
    </g>
</svg>
