<?xml version="1.0" encoding="UTF-8" standalone="no"?>
<!DOCTYPE svg PUBLIC "-//W3C//DTD SVG 1.1//EN" "http://www.w3.org/Graphics/SVG/1.1/DTD/svg11.dtd">
<svg width="100%" height="100%" viewBox="0 0 193 21" version="1.1" xmlns="http://www.w3.org/2000/svg" xmlns:xlink="http://www.w3.org/1999/xlink" xml:space="preserve" xmlns:serif="http://www.serif.com/" style="fill-rule:evenodd;clip-rule:evenodd;stroke-linejoin:round;stroke-miterlimit:2;">
    <g transform="matrix(1,0,0,1,-152,-159)">
        <g id="brows9" transform="matrix(1,0,0,1,0,10.5358)">
            <path d="M152.331,168.97C152.331,168.97 177.697,160.968 188.816,160.968C199.935,160.968 221.954,174.594 225.08,166.863C232.201,149.25 196.304,147.476 178.699,150.728C161.094,153.98 152.331,168.97 152.331,168.97ZM344.953,168.97C344.953,168.97 317.481,162.022 306.362,162.022C295.243,162.022 276.385,174.594 273.259,166.863C266.138,149.25 303.088,148.529 320.693,151.782C338.298,155.034 344.953,168.97 344.953,168.97Z" style="fill:#a37143;"/>
        </g>
    </g>
</svg>
