<?xml version="1.0" encoding="UTF-8" standalone="no"?>
<!DOCTYPE svg PUBLIC "-//W3C//DTD SVG 1.1//EN" "http://www.w3.org/Graphics/SVG/1.1/DTD/svg11.dtd">
<svg width="100%" height="100%" viewBox="0 0 197 23" version="1.1" xmlns="http://www.w3.org/2000/svg" xmlns:xlink="http://www.w3.org/1999/xlink" xml:space="preserve" xmlns:serif="http://www.serif.com/" style="fill-rule:evenodd;clip-rule:evenodd;stroke-linejoin:round;stroke-miterlimit:2;">
    <g transform="matrix(1,0,0,1,-151,-153)">
        <g id="brows6" transform="matrix(1,0,0,1.75498,-4.58728,-110.349)">
            <path d="M155.865,162.76C155.865,162.76 178.07,159.067 189.189,159.067C200.308,159.067 220.22,162.924 223.346,158.519C230.467,148.483 211.427,150.675 193.822,152.528C176.217,154.382 155.865,162.76 155.865,162.76ZM352.256,162.76C352.256,162.76 331.104,159.067 319.985,159.067C308.866,159.067 285.777,163.124 283.722,158.519C278.708,147.282 297.748,150.675 315.353,152.528C332.958,154.382 352.256,162.76 352.256,162.76Z" style="fill:#a37143;"/>
        </g>
    </g>
</svg>
