<?xml version="1.0" encoding="UTF-8" standalone="no"?>
<!DOCTYPE svg PUBLIC "-//W3C//DTD SVG 1.1//EN" "http://www.w3.org/Graphics/SVG/1.1/DTD/svg11.dtd">
<svg width="100%" height="100%" viewBox="0 0 180 42" version="1.1" xmlns="http://www.w3.org/2000/svg" xmlns:xlink="http://www.w3.org/1999/xlink" xml:space="preserve" xmlns:serif="http://www.serif.com/" style="fill-rule:evenodd;clip-rule:evenodd;stroke-linejoin:round;stroke-miterlimit:2;">
    <g transform="matrix(1,0,0,1,-160,-183)">
        <g id="eyelids" transform="matrix(1.06437,0,0,1.3703,-16.4959,-73.1034)">
            <path d="M224.379,210.456C224.379,210.456 218.379,187.552 196.379,187.552C174.379,187.552 166.379,204.242 166.379,204.242C166.379,204.242 166.379,217.242 188.379,217.242C210.379,217.242 224.379,210.456 224.379,210.456ZM276.379,210.456C276.379,210.456 282.379,187.552 304.379,187.552C326.379,187.552 334.379,204.242 334.379,204.242C334.379,204.242 334.379,217.242 312.379,217.242C290.379,217.242 276.379,210.456 276.379,210.456Z" style="fill:#e8a15f;"/>
        </g>
    </g>
</svg>
