<?xml version="1.0" encoding="UTF-8" standalone="no"?>
<!DOCTYPE svg PUBLIC "-//W3C//DTD SVG 1.1//EN" "http://www.w3.org/Graphics/SVG/1.1/DTD/svg11.dtd">
<svg width="100%" height="100%" viewBox="0 0 180 32" version="1.1" xmlns="http://www.w3.org/2000/svg" xmlns:xlink="http://www.w3.org/1999/xlink" xml:space="preserve" xmlns:serif="http://www.serif.com/" style="fill-rule:evenodd;clip-rule:evenodd;stroke-linejoin:round;stroke-miterlimit:2;">
    <g transform="matrix(1,0,0,1,-160,-190)">
        <path id="eyes6" d="M224,210.284C212.11,202.919 210.094,191.29 196,190.982C179.457,190.675 176.014,202.575 160.593,206.42C174.56,210.266 180.216,221.206 195.347,221.859C211.294,220.878 211.4,211.118 224,210.284ZM277.633,210.284C289.216,202.919 291.181,191.29 304.912,190.982C321.028,190.675 324.383,202.575 339.407,206.42C325.8,210.266 320.289,221.206 305.548,221.859C290.011,220.878 289.908,211.118 277.633,210.284Z" style="fill:#fff;"/>
    </g>
</svg>
