<?xml version="1.0" encoding="UTF-8" standalone="no"?>
<!DOCTYPE svg PUBLIC "-//W3C//DTD SVG 1.1//EN" "http://www.w3.org/Graphics/SVG/1.1/DTD/svg11.dtd">
<svg width="100%" height="100%" viewBox="0 0 168 32" version="1.1" xmlns="http://www.w3.org/2000/svg" xmlns:xlink="http://www.w3.org/1999/xlink" xml:space="preserve" xmlns:serif="http://www.serif.com/" style="fill-rule:evenodd;clip-rule:evenodd;stroke-linejoin:round;stroke-miterlimit:2;">
    <g transform="matrix(1,0,0,1,-166,-190)">
        <g id="eyes1" transform="matrix(1,0,0,1.28743,-0.378931,-53.9084)">
            <path d="M224.379,210.456C224.379,210.456 224.166,190.217 202.166,190.217C180.166,190.217 166.379,204.242 166.379,204.242C166.379,204.242 174.336,214.199 196.336,214.199C218.336,214.199 224.379,210.456 224.379,210.456ZM276.379,210.456C276.379,210.456 279.486,190.217 301.486,190.217C323.486,190.217 334.379,204.242 334.379,204.242C334.379,204.242 327.869,214.199 305.869,214.199C283.869,214.199 276.379,210.456 276.379,210.456Z" style="fill:#fff;"/>
        </g>
    </g>
</svg>
