<?xml version="1.0" encoding="UTF-8" standalone="no"?>
<!DOCTYPE svg PUBLIC "-//W3C//DTD SVG 1.1//EN" "http://www.w3.org/Graphics/SVG/1.1/DTD/svg11.dtd">
<svg width="100%" height="100%" viewBox="0 0 180 32" version="1.1" xmlns="http://www.w3.org/2000/svg" xmlns:xlink="http://www.w3.org/1999/xlink" xml:space="preserve" xmlns:serif="http://www.serif.com/" style="fill-rule:evenodd;clip-rule:evenodd;stroke-linejoin:round;stroke-miterlimit:2;">
    <g transform="matrix(1,0,0,1,-160,-190)">
        <path id="eyes7" d="M224,210.284C208.218,205.445 222.765,190.982 196,190.982C152.378,190.982 177.236,205.289 160.593,206.42C176.61,209.659 165.619,221.415 192.186,221.859C199.794,221.986 215.55,218.284 224,210.284ZM276,210.284C291.782,205.445 277.235,190.982 304,190.982C345.515,190.982 322.764,205.289 339.407,206.42C323.39,209.659 334.381,221.415 307.814,221.859C300.206,221.986 284.45,218.284 276,210.284Z" style="fill:#fff;"/>
    </g>
</svg>
