<?xml version="1.0" encoding="UTF-8" standalone="no"?>
<!DOCTYPE svg PUBLIC "-//W3C//DTD SVG 1.1//EN" "http://www.w3.org/Graphics/SVG/1.1/DTD/svg11.dtd">
<svg width="100%" height="100%" viewBox="0 0 180 32" version="1.1" xmlns="http://www.w3.org/2000/svg" xmlns:xlink="http://www.w3.org/1999/xlink" xml:space="preserve" xmlns:serif="http://www.serif.com/" style="fill-rule:evenodd;clip-rule:evenodd;stroke-linejoin:round;stroke-miterlimit:2;">
    <g transform="matrix(1,0,0,1,-160,-190)">
        <path id="eyes5" d="M224,220.896C224,220.896 218,190.982 196,190.982C174,190.982 160.593,208.339 160.593,208.339C160.593,208.339 166,221.859 188,221.859C210,221.859 224,220.896 224,220.896ZM276,220.896C276,220.896 282,190.982 304,190.982C326,190.982 339.407,208.339 339.407,208.339C339.407,208.339 334,221.859 312,221.859C290,221.859 276,220.896 276,220.896Z" style="fill:#fff;"/>
    </g>
</svg>
