<?xml version="1.0" encoding="UTF-8" standalone="no"?>
<!DOCTYPE svg PUBLIC "-//W3C//DTD SVG 1.1//EN" "http://www.w3.org/Graphics/SVG/1.1/DTD/svg11.dtd">
<svg width="100%" height="100%" viewBox="0 0 186 32" version="1.1" xmlns="http://www.w3.org/2000/svg" xmlns:xlink="http://www.w3.org/1999/xlink" xml:space="preserve" xmlns:serif="http://www.serif.com/" style="fill-rule:evenodd;clip-rule:evenodd;stroke-linejoin:round;stroke-miterlimit:2;">
    <g transform="matrix(1,0,0,1,-157,-190)">
        <path id="eyes2" d="M218.213,217.04C222.504,223.005 218,190.982 196,190.982C174,190.982 170.637,201.584 160.593,197.466C150.549,193.348 168.17,221.859 190.17,221.859C212.17,221.859 213.923,211.074 218.213,217.04ZM283.143,217.04C278.852,223.005 283.356,190.982 305.356,190.982C327.356,190.982 329.363,201.584 339.407,197.466C349.451,193.348 333.186,221.859 311.186,221.859C289.186,221.859 287.434,211.074 283.143,217.04Z" style="fill:#fff;"/>
    </g>
</svg>
