<?xml version="1.0" encoding="UTF-8" standalone="no"?>
<!DOCTYPE svg PUBLIC "-//W3C//DTD SVG 1.1//EN" "http://www.w3.org/Graphics/SVG/1.1/DTD/svg11.dtd">
<svg width="100%" height="100%" viewBox="0 0 180 32" version="1.1" xmlns="http://www.w3.org/2000/svg" xmlns:xlink="http://www.w3.org/1999/xlink" xml:space="preserve" xmlns:serif="http://www.serif.com/" style="fill-rule:evenodd;clip-rule:evenodd;stroke-linejoin:round;stroke-miterlimit:2;">
    <g transform="matrix(1,0,0,1,-160,-190)">
        <path id="eyes9" d="M225.054,216.892C213.486,211.014 215.39,193.09 196,190.982C171.342,199.411 168.808,201.075 160.593,206.42C168.182,211.766 184.583,221.415 192.186,221.859C199.783,222.302 217.657,213.288 225.054,216.892ZM274.962,216.876C286.53,210.998 284.626,193.074 304.016,190.967C328.673,199.395 331.208,201.059 339.423,206.405C331.834,211.75 315.433,221.399 307.83,221.843C300.233,222.286 282.359,213.272 274.962,216.876Z" style="fill:#fff;"/>
    </g>
</svg>
