<?xml version="1.0" encoding="UTF-8" standalone="no"?>
<!DOCTYPE svg PUBLIC "-//W3C//DTD SVG 1.1//EN" "http://www.w3.org/Graphics/SVG/1.1/DTD/svg11.dtd">
<svg width="100%" height="100%" viewBox="0 0 170 32" version="1.1" xmlns="http://www.w3.org/2000/svg" xmlns:xlink="http://www.w3.org/1999/xlink" xml:space="preserve" xmlns:serif="http://www.serif.com/" style="fill-rule:evenodd;clip-rule:evenodd;stroke-linejoin:round;stroke-miterlimit:2;">
    <g transform="matrix(1,0,0,1,-165,-190)">
        <path id="eyes10" d="M225.054,216.892C213.486,211.014 215.39,193.09 196,190.982C169.235,194.143 180.397,204.811 165.861,216.478C173.45,221.824 184.583,221.415 192.186,221.859C199.783,222.302 217.657,213.288 225.054,216.892ZM275.806,216.892C287.374,211.014 285.47,193.09 304.859,190.982C331.624,194.143 320.462,204.811 334.999,216.478C327.41,221.824 316.276,221.415 308.673,221.859C301.077,222.302 283.202,213.288 275.806,216.892Z" style="fill:#fff;"/>
    </g>
</svg>
