<?xml version="1.0" encoding="UTF-8" standalone="no"?>
<!DOCTYPE svg PUBLIC "-//W3C//DTD SVG 1.1//EN" "http://www.w3.org/Graphics/SVG/1.1/DTD/svg11.dtd">
<svg width="100%" height="100%" viewBox="0 0 180 39" version="1.1" xmlns="http://www.w3.org/2000/svg" xmlns:xlink="http://www.w3.org/1999/xlink" xml:space="preserve" xmlns:serif="http://www.serif.com/" style="fill-rule:evenodd;clip-rule:evenodd;stroke-linejoin:round;stroke-miterlimit:2;">
    <g transform="matrix(1,0,0,1,-160,-187)">
        <path id="eyes4" d="M224,224.585C224,224.585 218,187.552 196,187.552C174,187.552 160.593,209.04 160.593,209.04C160.593,209.04 166,225.776 188,225.776C210,225.776 224,224.585 224,224.585ZM276,224.585C276,224.585 282,187.552 304,187.552C326,187.552 339.407,209.04 339.407,209.04C339.407,209.04 334,225.776 312,225.776C290,225.776 276,224.585 276,224.585Z" style="fill:#fff;"/>
    </g>
</svg>
