<?xml version="1.0" encoding="UTF-8" standalone="no"?>
<!DOCTYPE svg PUBLIC "-//W3C//DTD SVG 1.1//EN" "http://www.w3.org/Graphics/SVG/1.1/DTD/svg11.dtd">
<svg width="100%" height="100%" viewBox="0 0 304 284" version="1.1" xmlns="http://www.w3.org/2000/svg" xmlns:xlink="http://www.w3.org/1999/xlink" xml:space="preserve" xmlns:serif="http://www.serif.com/" style="fill-rule:evenodd;clip-rule:evenodd;stroke-linejoin:round;stroke-miterlimit:2;">
    <g transform="matrix(1,0,0,1,-96,-31)">
        <path id="hair10" d="M262.673,42.027C256.449,32.068 237.775,25.844 205.408,37.048C173.04,48.252 139.428,45.762 122,91.823C104.571,137.884 89.632,151.322 100.836,187.552C112.04,223.782 138.183,266.109 151.877,298.476C165.571,330.844 338.612,305.462 349.816,288.898C361.02,272.333 395.877,217.302 398.367,187.552C400.857,157.803 398.367,110.497 367.245,83.109C336.122,55.721 337.367,38.293 305,35.803C272.632,33.313 271.387,35.803 262.673,42.027Z"/>
    </g>
</svg>
