<?xml version="1.0" encoding="UTF-8" standalone="no"?>
<!DOCTYPE svg PUBLIC "-//W3C//DTD SVG 1.1//EN" "http://www.w3.org/Graphics/SVG/1.1/DTD/svg11.dtd">
<svg width="100%" height="100%" viewBox="0 0 384 466" version="1.1" xmlns="http://www.w3.org/2000/svg" xmlns:xlink="http://www.w3.org/1999/xlink" xml:space="preserve" xmlns:serif="http://www.serif.com/" style="fill-rule:evenodd;clip-rule:evenodd;stroke-linejoin:round;stroke-miterlimit:2;">
    <g transform="matrix(1,0,0,1,-57,-28)">
        <path id="hair1" d="M193.054,60.155C181.504,57.605 174.661,57.208 156.337,71.337C121.952,105.178 97.237,125.594 97.237,197.589C97.237,269.584 74.672,288.49 57.479,305.363C85.417,294.299 105.834,290 107.983,279.255C109.057,297.522 71.448,324.386 62.852,364.144C85.417,344.803 101.453,332.983 114.926,317.939C100.461,351.25 85.417,382.412 99.386,418.947C113.355,455.481 233.792,464.375 252.06,494C322.674,423.386 404.289,494.165 407.513,418.947C411.811,320.088 364.8,327.61 378.769,288.926C390.589,298.597 416.378,335.132 419.602,358.772C414.229,315.79 392.738,250 392.738,250C392.738,250 418.528,286.777 440.019,290C417.453,259.913 411.542,251.728 407.513,214.988C403.484,178.247 387.15,97.67 359.857,71.337C332.564,45.003 292.805,29.959 273.463,29.959C254.121,29.959 215.555,18.17 193.054,60.155Z" style="fill:#f5e0a4;"/>
    </g>
</svg>
