<?xml version="1.0" encoding="UTF-8" standalone="no"?>
<!DOCTYPE svg PUBLIC "-//W3C//DTD SVG 1.1//EN" "http://www.w3.org/Graphics/SVG/1.1/DTD/svg11.dtd">
<svg width="100%" height="100%" viewBox="0 0 224 167" version="1.1" xmlns="http://www.w3.org/2000/svg" xmlns:xlink="http://www.w3.org/1999/xlink" xml:space="preserve" xmlns:serif="http://www.serif.com/" style="fill-rule:evenodd;clip-rule:evenodd;stroke-linejoin:round;stroke-miterlimit:2;">
    <g transform="matrix(1,0,0,1,-138,-33)">
        <path id="hair12" d="M139.258,176.23C137.576,153.779 136.724,115.765 153.994,92.45C171.264,69.135 196.295,65.702 198.885,57.066C201.476,48.431 193.704,34.818 207.521,46.907C221.337,58.996 226.518,46.765 215.292,39.857C204.066,32.949 213.565,32.949 227.381,40.721C241.197,48.492 241.558,53.705 241.558,45.934C241.558,38.162 231.525,28.993 242.75,36.764C253.976,44.536 265.407,57.069 273.178,57.069C280.95,57.069 253.354,28.972 269.72,39.855C286.086,50.738 294.735,63.111 303.37,65.702C312.005,68.292 330.845,75.415 340.498,89.875C350.152,104.335 365.455,133.91 360.328,175.367C355.402,215.194 140.939,198.682 139.258,176.23Z" style="fill:#1c7244;"/>
    </g>
</svg>
