<?xml version="1.0" encoding="UTF-8" standalone="no"?>
<!DOCTYPE svg PUBLIC "-//W3C//DTD SVG 1.1//EN" "http://www.w3.org/Graphics/SVG/1.1/DTD/svg11.dtd">
<svg width="100%" height="100%" viewBox="0 0 383 427" version="1.1" xmlns="http://www.w3.org/2000/svg" xmlns:xlink="http://www.w3.org/1999/xlink" xml:space="preserve" xmlns:serif="http://www.serif.com/" style="fill-rule:evenodd;clip-rule:evenodd;stroke-linejoin:round;stroke-miterlimit:2;">
    <g transform="matrix(1,0,0,1,-50,-39)">
        <path id="hair4" d="M263.586,47.007C242.906,42.396 240.473,32.664 214.927,48.479C189.381,64.293 184.515,49.44 158.969,71.337C133.423,93.233 148.643,93.488 125.219,110.519C101.794,127.55 100.578,120.251 99.362,148.23C98.145,176.209 78.681,161.466 78.681,187.693C78.681,213.92 51.752,212.289 66.35,250C80.947,287.711 55.815,278.731 50.95,312.624C46.084,346.516 81.197,336.295 71.465,368.776C61.733,401.257 96.929,382.921 96.929,421.304C96.929,459.686 162.125,454.371 177.301,461.669C192.478,468.968 317.522,465.338 348.657,451.525C379.793,437.713 407.131,438.312 407.131,403.69C407.131,369.069 439.811,374.006 427.646,344.447C415.481,314.887 436.594,316.009 431.728,289.078C426.862,262.146 433.027,258.497 428.161,237.816C423.295,217.136 408.347,210.27 404.698,195.673C401.048,181.075 405.914,182.291 401.048,164.044C396.182,145.797 391.091,156.745 378.431,134.849C365.77,112.952 373.407,108.793 359.857,93.233C346.307,77.674 337.791,77.164 326.843,71.337C315.895,65.509 317.111,50.912 291.565,54.561C266.019,58.21 284.266,51.618 263.586,47.007Z"/>
    </g>
</svg>
