<?xml version="1.0" encoding="UTF-8" standalone="no"?>
<!DOCTYPE svg PUBLIC "-//W3C//DTD SVG 1.1//EN" "http://www.w3.org/Graphics/SVG/1.1/DTD/svg11.dtd">
<svg width="100%" height="100%" viewBox="0 0 271 342" version="1.1" xmlns="http://www.w3.org/2000/svg" xmlns:xlink="http://www.w3.org/1999/xlink" xml:space="preserve" xmlns:serif="http://www.serif.com/" style="fill-rule:evenodd;clip-rule:evenodd;stroke-linejoin:round;stroke-miterlimit:2;">
    <g transform="matrix(1,0,0,1,-114,-3)">
        <g id="hair2">
            <path d="M228.404,59.618C227.295,50.774 180.517,44.678 204.007,30.812C214.234,24.775 213.928,0.869 230.038,10.85C246.148,20.831 247.257,-3.567 261.674,6.414C276.091,16.395 286.072,4.196 293.835,14.177C301.598,24.158 289.399,24.158 299.38,35.248C309.361,46.338 282.902,45.245 281.636,56.319C279.868,71.786 229.513,68.463 228.404,59.618Z" style="fill:#ec5da2;"/>
            <path d="M140.143,231.539C133.031,223.776 127.486,200.124 124.159,187.552C120.832,174.981 112.708,160.564 114.926,146.147C117.144,131.73 118.421,121.749 130.162,101.787C141.903,81.825 155.211,69.72 169.628,61.356C184.045,52.992 210.661,47.447 233.949,43.011C257.238,38.575 263.892,57.428 280.527,57.428C297.162,57.428 322.669,54.194 339.304,71.337C355.939,88.479 363.702,107.332 373.682,119.531C383.663,131.73 389.208,172.763 380.336,196.052C371.464,219.34 336.833,256.353 342.631,289.207C345.958,308.06 356.914,317.274 356.914,317.274C356.914,317.274 338.195,325.804 317.124,303.624C318.233,310.278 316.269,324.949 325.141,337.148C309.615,334.93 309.361,328.022 289.399,326.913C269.437,325.804 202.6,307.33 199.571,322.477C197.353,333.567 189.59,335.785 187.372,344.657C178.5,332.458 177.391,325.804 186.263,305.842C175.173,312.496 179.609,315.223 157.429,322.731C161.865,310.278 160.756,313.605 156.32,280.335C151.884,247.065 147.255,239.302 140.143,231.539Z" style="fill:#f07db4;"/>
        </g>
    </g>
</svg>
