<?xml version="1.0" encoding="UTF-8" standalone="no"?>
<!DOCTYPE svg PUBLIC "-//W3C//DTD SVG 1.1//EN" "http://www.w3.org/Graphics/SVG/1.1/DTD/svg11.dtd">
<svg width="100%" height="100%" viewBox="0 0 357 458" version="1.1" xmlns="http://www.w3.org/2000/svg" xmlns:xlink="http://www.w3.org/1999/xlink" xml:space="preserve" xmlns:serif="http://www.serif.com/" style="fill-rule:evenodd;clip-rule:evenodd;stroke-linejoin:round;stroke-miterlimit:2;">
    <g transform="matrix(1,0,0,1,-70,-33)">
        <path id="hair3" d="M253.756,45.61C253.756,45.61 263.658,24.423 305.658,38.423C370.602,80.888 396.896,99.209 403.271,191.82C409.645,284.43 386.767,290.082 394.563,322.125C402.359,354.168 432.079,370.667 426.066,432.676C420.054,494.685 91.915,526.25 70.19,427.198C68.242,353.127 95.429,334.598 99.53,306.392C103.632,278.185 91.872,257.212 96.19,213.574C100.509,169.936 81.956,113.169 150.775,66.586C234.631,9.825 253.756,45.61 253.756,45.61Z" style="fill:#73502f;"/>
    </g>
</svg>
