<?xml version="1.0" encoding="UTF-8" standalone="no"?>
<!DOCTYPE svg PUBLIC "-//W3C//DTD SVG 1.1//EN" "http://www.w3.org/Graphics/SVG/1.1/DTD/svg11.dtd">
<svg width="100%" height="100%" viewBox="0 0 278 234" version="1.1" xmlns="http://www.w3.org/2000/svg" xmlns:xlink="http://www.w3.org/1999/xlink" xml:space="preserve" xmlns:serif="http://www.serif.com/" style="fill-rule:evenodd;clip-rule:evenodd;stroke-linejoin:round;stroke-miterlimit:2;">
    <g transform="matrix(1,0,0,1,-113,-4)">
        <g id="hair7" transform="matrix(1,0,0,1.08767,0,-20.843)">
            <path d="M275.776,58.254C270.559,56.166 250.731,19.642 242.382,23.816C234.034,27.99 245.513,39.114 231.947,40.335C218.38,41.556 212.119,45.731 210.032,51.992C207.944,58.254 191.247,62.428 184.986,54.079C178.725,45.731 170.376,59.374 169.332,71.337C168.289,83.299 150.609,64.515 140.143,81.212C129.677,97.909 117.154,112.231 126.546,122.289C125.503,136.521 98.37,140.695 125.503,193.917C128.633,221.05 137.043,237.747 140.143,237.747C143.243,237.747 355.234,229.399 359.857,229.399C364.48,229.399 368.654,203.31 378.046,193.917C387.438,184.525 398.917,152.175 381.177,128.173C363.436,104.171 371.785,92.691 355.088,78.081C338.391,63.471 324.824,71.82 321.693,66.602C318.563,61.384 306.04,30.077 285.169,30.077C264.297,30.077 301.866,45.731 285.169,50.949C268.471,56.166 280.994,60.341 275.776,58.254Z" style="fill:#f07db4;"/>
        </g>
    </g>
</svg>
