<?xml version="1.0" encoding="UTF-8" standalone="no"?>
<!DOCTYPE svg PUBLIC "-//W3C//DTD SVG 1.1//EN" "http://www.w3.org/Graphics/SVG/1.1/DTD/svg11.dtd">
<svg width="100%" height="100%" viewBox="0 0 364 382" version="1.1" xmlns="http://www.w3.org/2000/svg" xmlns:xlink="http://www.w3.org/1999/xlink" xml:space="preserve" xmlns:serif="http://www.serif.com/" style="fill-rule:evenodd;clip-rule:evenodd;stroke-linejoin:round;stroke-miterlimit:2;">
    <g transform="matrix(1,0,0,1,-71,-19)">
        <path id="hair8" d="M255.949,34.251C236.121,27.99 229.859,11.293 190.204,23.816C150.548,36.339 158.958,65.636 140.143,71.337C121.328,77.038 103.588,93.735 94.196,126.085C84.803,158.436 88.978,170.959 86.891,196.005C84.803,221.05 66.019,239.834 72.281,272.185C78.542,304.536 119.241,326.451 103.588,336.886C87.934,347.322 90.021,353.57 105.675,362.447C121.328,371.324 120.285,377.585 104.631,382.803C110.893,393.239 144.287,361.932 112.98,353.583C81.673,345.235 148.461,343.148 110.893,313.928C109.849,294.1 143.243,334.799 134.895,349.409C126.546,364.019 133.851,379.673 145.33,381.76C156.81,383.847 146.374,397.413 132.808,395.326C119.241,393.239 153.679,408.892 164.115,393.239C174.55,377.585 136.982,367.136 154.723,362.447C172.463,357.758 147.418,325.407 156.81,327.494C166.202,329.581 154.169,336.886 174.795,347.322C195.422,357.758 143.243,357.758 167.245,372.368C191.247,386.978 154.723,390.108 184.986,392.195C215.249,394.282 156.81,364.005 196.465,362.447C236.121,360.888 225.267,362.962 250,362.447C274.733,361.932 283.081,362.962 297.691,362.447C312.301,361.932 320.65,361.932 313.345,368.193C306.04,374.455 304.996,378.629 315.432,381.76C325.868,384.89 328.998,389.065 322.737,392.195C316.476,395.326 339.434,399.5 331.086,378.629C322.737,357.758 328.998,351.496 340.478,355.67C351.957,359.845 321.693,371.324 344.652,376.542C367.61,381.76 337.347,394.282 364.48,392.195C366.567,374.455 364.48,375.498 354.044,371.324C343.608,367.15 376.017,344.871 350.913,341.061C338.279,339.143 358.36,322.164 366.709,330.513C375.058,338.861 390.992,333.586 377.426,349.24C363.86,364.893 372.828,365.063 386.395,369.237C399.961,373.411 367.61,378.115 377.003,387.242C395.787,384.89 417.613,354.627 394.699,354.627C371.785,354.627 413.527,325.407 379.09,321.233C378.046,305.579 386.306,287.688 394.699,299.242C403.092,310.797 382.22,313.928 399.961,324.363C417.702,334.799 414.571,327.494 406.222,337.93C397.874,348.365 408.31,356.714 417.702,348.365C427.094,340.017 425.007,319.146 408.31,312.884C391.612,306.623 423.963,296.187 410.397,281.577C396.83,266.967 450.052,261.749 430.225,229.399C410.397,197.048 457.357,160.523 411.44,130.26C365.523,99.996 412.631,85.386 359.857,64.515C307.083,43.644 341.521,37.382 301.866,27.99C262.21,18.598 275.776,40.513 255.949,34.251Z" style="fill:#73502f;"/>
    </g>
</svg>
