<?xml version="1.0" encoding="UTF-8" standalone="no"?>
<!DOCTYPE svg PUBLIC "-//W3C//DTD SVG 1.1//EN" "http://www.w3.org/Graphics/SVG/1.1/DTD/svg11.dtd">
<svg width="100%" height="100%" viewBox="0 0 315 345" version="1.1" xmlns="http://www.w3.org/2000/svg" xmlns:xlink="http://www.w3.org/1999/xlink" xml:space="preserve" xmlns:serif="http://www.serif.com/" style="fill-rule:evenodd;clip-rule:evenodd;stroke-linejoin:round;stroke-miterlimit:2;">
    <g transform="matrix(1,0,0,1,-96,-19)">
        <path id="hair6" d="M202.562,47.111C194.9,42.6 178.203,30.077 152.114,58.254C126.024,86.43 88.244,124.673 97.848,163.654C115.589,235.66 142.782,255.488 140.143,286.795C137.504,318.102 142.721,310.797 161.506,330.625C180.29,350.453 194.9,361.918 207.423,362.447C219.946,362.975 303.431,368.193 315.954,350.453C328.477,332.712 343.087,337.93 351.435,319.146C359.784,300.361 359.784,277.403 365.002,258.619C370.219,239.834 397.352,215.625 402.57,187.552C407.788,159.48 422.398,125.042 389.004,95.822C355.609,66.602 335.533,28.029 290.908,21.729C202.205,9.206 210.225,51.622 202.562,47.111Z" style="fill:#f5e0a4;"/>
    </g>
</svg>
