<?xml version="1.0" encoding="UTF-8" standalone="no"?>
<!DOCTYPE svg PUBLIC "-//W3C//DTD SVG 1.1//EN" "http://www.w3.org/Graphics/SVG/1.1/DTD/svg11.dtd">
<svg width="100%" height="100%" viewBox="0 0 132 21" version="1.1" xmlns="http://www.w3.org/2000/svg" xmlns:xlink="http://www.w3.org/1999/xlink" xml:space="preserve" xmlns:serif="http://www.serif.com/" style="fill-rule:evenodd;clip-rule:evenodd;stroke-linejoin:round;stroke-miterlimit:2;">
    <g transform="matrix(1,0,0,1,-185,-196)">
        <path id="Pupills1" d="M195.083,196.363C200.634,196.363 205.14,200.87 205.14,206.42C205.14,211.971 200.634,216.478 195.083,216.478C189.532,216.478 185.025,211.971 185.025,206.42C185.025,200.87 189.532,196.363 195.083,196.363ZM306.272,196.363C311.823,196.363 316.33,200.87 316.33,206.42C316.33,211.971 311.823,216.478 306.272,216.478C300.722,216.478 296.215,211.971 296.215,206.42C296.215,200.87 300.722,196.363 306.272,196.363Z"/>
    </g>
</svg>
