<?xml version="1.0" encoding="UTF-8" standalone="no"?>
<!DOCTYPE svg PUBLIC "-//W3C//DTD SVG 1.1//EN" "http://www.w3.org/Graphics/SVG/1.1/DTD/svg11.dtd">
<svg width="100%" height="100%" viewBox="0 0 141 30" version="1.1" xmlns="http://www.w3.org/2000/svg" xmlns:xlink="http://www.w3.org/1999/xlink" xml:space="preserve" xmlns:serif="http://www.serif.com/" style="fill-rule:evenodd;clip-rule:evenodd;stroke-linejoin:round;stroke-miterlimit:2;">
    <g transform="matrix(1,0,0,1,-180,-191)">
        <path id="Pupills2" d="M195.083,191.865C187.049,191.865 180.527,198.387 180.527,206.42C180.527,214.454 187.049,220.976 195.083,220.976C203.116,220.976 209.638,214.454 209.638,206.42C209.638,198.387 203.116,191.865 195.083,191.865ZM306.272,191.865C298.239,191.865 291.717,198.387 291.717,206.42C291.717,214.454 298.239,220.976 306.272,220.976C314.306,220.976 320.828,214.454 320.828,206.42C320.828,198.387 314.306,191.865 306.272,191.865Z"/>
    </g>
</svg>
