<?xml version="1.0" encoding="UTF-8" standalone="no"?>
<!DOCTYPE svg PUBLIC "-//W3C//DTD SVG 1.1//EN" "http://www.w3.org/Graphics/SVG/1.1/DTD/svg11.dtd">
<svg width="100%" height="100%" viewBox="0 0 461 97" version="1.1" xmlns="http://www.w3.org/2000/svg" xmlns:xlink="http://www.w3.org/1999/xlink" xml:space="preserve" xmlns:serif="http://www.serif.com/" style="fill-rule:evenodd;clip-rule:evenodd;stroke-linejoin:round;stroke-miterlimit:2;">
    <g transform="matrix(1,0,0,1,-20,-403)">
        <g id="shirt2" transform="matrix(1.10567,0,0,1,-26.4757,0)">
            <path d="M42.379,500C42.379,500 41.624,481.008 48.379,459.242C66.379,401.242 162.379,405.242 172.379,403.242C182.379,401.242 178.379,415.242 202.379,429.242C226.379,443.242 250.54,443.242 250.54,443.242C250.54,443.242 274.701,443.242 298.701,429.242C322.701,415.242 318.701,401.242 328.701,403.242C338.701,405.242 434.701,401.242 452.701,459.242C459.456,481.008 458.701,500 458.701,500L42.379,500Z" style="fill:#6aaa88;"/>
        </g>
    </g>
</svg>
