<?xml version="1.0" encoding="UTF-8" standalone="no"?>
<!DOCTYPE svg PUBLIC "-//W3C//DTD SVG 1.1//EN" "http://www.w3.org/Graphics/SVG/1.1/DTD/svg11.dtd">
<svg width="100%" height="100%" viewBox="0 0 500 98" version="1.1" xmlns="http://www.w3.org/2000/svg" xmlns:xlink="http://www.w3.org/1999/xlink" xml:space="preserve" xmlns:serif="http://www.serif.com/" style="fill-rule:evenodd;clip-rule:evenodd;stroke-linejoin:round;stroke-miterlimit:2;">
    <g transform="matrix(1,0,0,1,0,-402)">
        <g id="shirt3" transform="matrix(1.20085,0,0,1.16306,-50.8604,-81.5293)">
            <path d="M42.379,500C42.379,500 41.624,481.008 48.379,459.242C66.379,401.242 147.4,420.362 177.386,416.643C187.499,415.388 178.379,415.242 202.379,429.242C226.379,443.242 250.54,443.242 250.54,443.242C250.54,443.242 274.701,443.242 298.701,429.242C322.701,415.242 313.567,415.512 323.694,416.643C357.011,420.362 434.701,401.242 452.701,459.242C459.456,481.008 458.701,500 458.701,500L42.379,500Z" style="fill:#6a83aa;"/>
        </g>
    </g>
</svg>
